<svg xmlns="http://www.w3.org/2000/svg" width="75" height="24">
  <path fill="#F90908" d="M4.685 23.44c3.46 0 6.49-3.45 9.09-10.35 1.14.08 2.41.29 3.81.63v3.93c0 3.14 1.04 4.71 3.12 4.71 1.26 0 2.58-.44 3.96-1.32l-.45-1.17c-.3.1-.56.15-.78.15-.38 0-.71-.64-.99-1.92-.18-.78-.29-1.74-.33-2.88 1.56.82 2.93 1.81 4.11 2.97l.3-.18c.2-.12.415-.305.645-.555.23-.25.385-.505.465-.765-1.54-1.44-3.39-2.63-5.55-3.57-.02-4.02-.06-6.845-.12-8.475s-.35-2.905-.87-3.825l-1.8-.12c-1.42 0-2.99.16-4.71.48v.3c.2.14.3.305.3.495s-.01.345-.03.465c-.82 3.24-1.76 6.17-2.82 8.79-1.82.06-3.48.345-4.98.855-1.5.51-2.715 1.155-3.645 1.935-.93.78-1.645 1.625-2.145 2.535-.5.91-.75 1.89-.75 2.94s.395 1.97 1.185 2.76c.79.79 1.785 1.185 2.985 1.185zm12.9-11.73c-1.12-.22-2.17-.36-3.15-.42 1.38-3.94 2.16-6.67 2.34-8.19.04-.02.12-.03.24-.03s.2.01.24.03c.22.82.33 3.69.33 8.61zm-12.78 9.48c-.94 0-1.41-.61-1.41-1.83 0-1.22.75-2.53 2.25-3.93 1.5-1.4 3.38-2.19 5.64-2.37-2.4 5.42-4.56 8.13-6.48 8.13zm22.74 1.17c.7 0 1.535-.23 2.505-.69.97-.46 1.795-.96 2.475-1.5l-.54-1.05-2.1.75c-.18 0-.27-.375-.27-1.125s.505-3.42 1.515-8.01c1.01-4.59 1.515-7.685 1.515-9.285 0-.7-.1-1.19-.3-1.47-1.36 0-2.82.27-4.38.81l.18 1.32c0 1.98-.495 5.205-1.485 9.675-.99 4.47-1.485 7.12-1.485 7.95 0 .83.225 1.475.675 1.935.45.46 1.015.69 1.695.69zm9.87 0c1.82 0 3.31-.775 4.47-2.325 1.16-1.55 1.93-3.375 2.31-5.475l.6-.12c1.12-.22 2.01-.47 2.67-.75l-.18-1.17-.48.12c-.84.18-1.67.29-2.49.33 0-2.98-.79-4.47-2.37-4.47-.42 0-.8.09-1.14.27l-1.08-.06c-2.1 0-3.745.8-4.935 2.4-1.19 1.6-1.785 3.51-1.785 5.73 0 1.74.39 3.095 1.17 4.065.78.97 1.86 1.455 3.24 1.455zm1.62-2.58c-1.1 0-1.65-1.08-1.65-3.24 0-1.52.22-2.87.66-4.05.44-1.18.91-1.93 1.41-2.25.06-.04.15-.06.27-.06.12 0 .22.02.3.06l-.15.3c-.26.56-.39 1.16-.39 1.8 0 1.6 1.07 2.4 3.21 2.4-.26 1.2-.725 2.34-1.395 3.42s-1.425 1.62-2.265 1.62zm9.09 2.61c1.32 0 2.79-.66 4.41-1.98.06.58.315 1.05.765 1.41.45.36.995.54 1.635.54 1.34 0 2.9-.74 4.68-2.22l-.57-.96c-1.02.48-1.59.72-1.71.72-.2 0-.3-.235-.3-.705s.28-2.07.84-4.8c.56-2.73.84-4.565.84-5.505h-.57c-1.82 0-3.08.14-3.78.42 0 1.38-.36 3.67-1.08 6.87-.32 1.36-.52 2.28-.6 2.76-.76.42-1.43.63-2.01.63-.4 0-.6-.27-.6-.81s.28-1.92.84-4.14c.56-2.22.84-3.67.84-4.35 0-.68-.05-1.15-.15-1.41-2.22 0-4.01.14-5.37.42l-.03.39c.72.78 1.08 1.405 1.08 1.875s-.26 1.74-.78 3.81c-.52 2.07-.78 3.535-.78 4.395 0 .84.225 1.49.675 1.95.45.46 1.025.69 1.725.69zm22.065-.03c1.29 0 2.785-.73 4.485-2.19l-.57-1.05-.3.18c-.64.38-1.02.57-1.14.57-.22 0-.33-.24-.33-.72 0-1.6.44-4.635 1.32-9.105.88-4.47 1.32-7.435 1.32-8.895 0-.44-.08-.83-.24-1.17-1.44 0-2.91.26-4.41.78l.15 1.26c0 1.86-.31 4.41-.93 7.65-.96-.64-2.145-.96-3.555-.96-1.41 0-2.675.755-3.795 2.265-1.12 1.51-1.68 3.585-1.68 6.225 0 1.76.34 3.06 1.02 3.9.68.84 1.5 1.26 2.46 1.26.56 0 1.21-.17 1.95-.51.74-.34 1.41-.81 2.01-1.41.2 1.28.945 1.92 2.235 1.92zm-4.185-2.55c-.38 0-.665-.19-.855-.57-.19-.38-.285-1.245-.285-2.595s.255-2.715.765-4.095 1.115-2.07 1.815-2.07c.56 0 1.18.18 1.86.54-.84 4.52-1.29 7.18-1.35 7.98-.64.54-1.29.81-1.95.81z"/>
</svg>
